<svg width="138" height="35" viewBox="0 0 138 35" fill="none" xmlns="http://www.w3.org/2000/svg">
<path d="M1.82486 2.17514C-0.127766 4.12776 -0.135986 7.30382 1.91179 9.1564C10.3945 16.8306 20.1407 23.001 30.7317 27.388C42.8642 32.4134 55.8678 35 69 35C82.1322 35 95.1358 32.4134 107.268 27.388C117.859 23.001 127.606 16.8306 136.088 9.1564C138.136 7.30382 138.128 4.12776 136.175 2.17514C134.223 0.222519 131.066 0.234024 129.008 2.07521C121.461 8.82695 112.819 14.2648 103.442 18.1492C92.5222 22.6721 80.819 25 69 25C57.181 25 45.4778 22.6721 34.5585 18.1492C25.1809 14.2648 16.5393 8.82695 8.99236 2.07521C6.93432 0.234024 3.77748 0.222519 1.82486 2.17514Z" fill="#3CFF38" fill-opacity="0.69"/>
</svg>
