<svg width="117" height="81" viewBox="0 0 117 81" fill="none" xmlns="http://www.w3.org/2000/svg">
<path d="M3.94867 0.142876C1.24389 0.699318 -0.510175 3.34707 0.180749 6.02066C3.04283 17.0957 7.78728 27.6101 14.2184 37.0999C21.5855 47.9709 31.0217 57.2845 41.9882 64.5087C52.9548 71.733 65.2368 76.7265 78.1332 79.2041C89.3909 81.3669 100.924 81.5756 112.23 79.8335C114.959 79.4129 116.699 76.7561 116.143 74.0513C115.586 71.3465 112.944 69.6195 110.212 70.0249C100.196 71.5115 89.9878 71.2987 80.0199 69.3837C68.4131 67.1538 57.3593 62.6597 47.4894 56.1579C37.6196 49.656 29.127 41.2739 22.4965 31.4899C16.8023 23.0874 12.5772 13.7924 9.98913 4.0024C9.28337 1.33268 6.65345 -0.413559 3.94867 0.142876Z" fill="#38FF94" fill-opacity="0.69"/>
</svg>
