<svg width="81" height="117" viewBox="0 0 81 117" fill="none" xmlns="http://www.w3.org/2000/svg">
<path d="M0.366745 113.005C0.929688 115.708 3.58166 117.456 6.25358 116.759C17.3217 113.87 27.8247 109.1 37.299 102.646C48.1522 95.2531 57.443 85.7945 64.6409 74.8106C71.8387 63.8268 76.8026 51.5327 79.2492 38.6305C81.3849 27.3675 81.5659 15.8337 79.7965 4.53244C79.3694 1.80424 76.7084 0.0703049 74.005 0.633255C71.3016 1.1962 69.5809 3.84291 69.9929 6.57343C71.5035 16.5864 71.3153 26.7949 69.4243 36.7674C67.2224 48.3795 62.7548 59.4441 56.2768 69.3296C49.7987 79.2151 41.437 87.7278 31.6691 94.3818C23.2803 100.096 13.9954 104.344 4.21171 106.955C1.5437 107.667 -0.196205 110.302 0.366745 113.005Z" fill="#38FF94" fill-opacity="0.69"/>
</svg>
