<svg width="138" height="39" viewBox="0 0 138 39" fill="none" xmlns="http://www.w3.org/2000/svg">
<path d="M2.05688 2.18296C-0.00526579 4.01955 -0.196917 7.18981 1.74043 9.15759C9.7657 17.3089 19.1392 24.032 29.4591 29.0233C41.2812 34.7412 54.1137 38.0745 67.2239 38.833C80.3342 39.5915 93.4655 37.7603 105.868 33.444C116.695 29.6761 126.781 24.0789 135.693 16.9075C137.844 15.1763 138.019 12.0051 136.183 9.94296C134.346 7.8808 131.194 7.70995 129.033 9.4292C121.109 15.7338 112.167 20.6634 102.581 23.9996C91.4189 27.8843 79.6008 29.5324 67.8015 28.8497C56.0023 28.1671 44.4531 25.167 33.8132 20.021C24.6757 15.6015 16.3625 9.67356 9.21818 2.49719C7.26993 0.540207 4.11903 0.346377 2.05688 2.18296Z" fill="#3840FF" fill-opacity="0.69"/>
</svg>
