<svg width="60" height="131" viewBox="0 0 60 131" fill="none" xmlns="http://www.w3.org/2000/svg">
<path d="M1.21268 127.595C2.41063 130.083 5.40565 131.14 7.83072 129.819C17.8763 124.348 26.92 117.187 34.5593 108.64C43.3106 98.8488 50.0477 87.4298 54.3859 75.0348C58.7241 62.6399 60.5785 49.5118 59.8431 36.4003C59.2012 24.9546 56.5968 13.7172 52.1557 3.17561C51.0836 0.630806 48.0831 -0.410641 45.5951 0.787315C43.107 1.98527 42.075 4.96869 43.133 7.51941C47.0125 16.8731 49.2904 26.826 49.8588 36.9602C50.5206 48.7607 48.8517 60.5759 44.9473 71.7313C41.043 82.8868 34.9796 93.164 27.1034 101.976C20.3393 109.544 12.3519 115.904 3.48613 120.797C1.06844 122.131 0.0147247 125.107 1.21268 127.595Z" fill="#3840FF" fill-opacity="0.69"/>
</svg>
